<?xml version="1.0" encoding="UTF-8" standalone="no"?>
<!-- Created with Inkscape (http://www.inkscape.org/) -->

<svg
   width="87.117615mm"
   height="109.16357mm"
   viewBox="0 0 87.117615 109.16357"
   version="1.1"
   id="svg5"
   xml:space="preserve"
   inkscape:version="1.2.2 (732a01da63, 2022-12-09)"
   sodipodi:docname="Achivements.svg"
   xmlns:inkscape="http://www.inkscape.org/namespaces/inkscape"
   xmlns:sodipodi="http://sodipodi.sourceforge.net/DTD/sodipodi-0.dtd"
   xmlns:xlink="http://www.w3.org/1999/xlink"
   xmlns="http://www.w3.org/2000/svg"
   xmlns:svg="http://www.w3.org/2000/svg"><sodipodi:namedview
     id="namedview7"
     pagecolor="#ffffff"
     bordercolor="#000000"
     borderopacity="0.25"
     inkscape:showpageshadow="2"
     inkscape:pageopacity="0.0"
     inkscape:pagecheckerboard="0"
     inkscape:deskcolor="#d1d1d1"
     inkscape:document-units="mm"
     showgrid="false"
     inkscape:zoom="0.7162458"
     inkscape:cx="3312.4103"
     inkscape:cy="1406.64"
     inkscape:window-width="1920"
     inkscape:window-height="991"
     inkscape:window-x="-9"
     inkscape:window-y="-9"
     inkscape:window-maximized="1"
     inkscape:current-layer="g4826" /><defs
     id="defs2"><linearGradient
       inkscape:collect="always"
       id="linearGradient11534"><stop
         style="stop-color:#870000;stop-opacity:1;"
         offset="0"
         id="stop11530" /><stop
         style="stop-color:#ca0000;stop-opacity:1;"
         offset="1"
         id="stop11532" /></linearGradient><linearGradient
       inkscape:collect="always"
       id="linearGradient10800"><stop
         style="stop-color:#870000;stop-opacity:1;"
         offset="0"
         id="stop10796" /><stop
         style="stop-color:#ca0000;stop-opacity:1;"
         offset="1"
         id="stop10798" /></linearGradient><linearGradient
       inkscape:collect="always"
       id="linearGradient10792"><stop
         style="stop-color:#870000;stop-opacity:1;"
         offset="0"
         id="stop10788" /><stop
         style="stop-color:#870000;stop-opacity:0;"
         offset="1"
         id="stop10790" /></linearGradient><linearGradient
       inkscape:collect="always"
       id="linearGradient10784"><stop
         style="stop-color:#870000;stop-opacity:1;"
         offset="0"
         id="stop10780" /><stop
         style="stop-color:#ca0000;stop-opacity:1;"
         offset="1"
         id="stop10782" /></linearGradient><linearGradient
       inkscape:collect="always"
       id="linearGradient10776"><stop
         style="stop-color:#870000;stop-opacity:1;"
         offset="0"
         id="stop10772" /><stop
         style="stop-color:#ca0000;stop-opacity:1;"
         offset="1"
         id="stop10774" /></linearGradient><linearGradient
       inkscape:collect="always"
       id="linearGradient10540"><stop
         style="stop-color:#f5be39;stop-opacity:1;"
         offset="0"
         id="stop10530" /><stop
         style="stop-color:#ffd699;stop-opacity:1;"
         offset="0.36643833"
         id="stop10532" /><stop
         style="stop-color:#e49a22;stop-opacity:1;"
         offset="0.66609591"
         id="stop10534" /><stop
         style="stop-color:#e8b342;stop-opacity:1;"
         offset="0.87842464"
         id="stop10536" /><stop
         style="stop-color:#ffd587;stop-opacity:1;"
         offset="1"
         id="stop10538" /></linearGradient><linearGradient
       inkscape:collect="always"
       xlink:href="#linearGradient11534"
       id="linearGradient8146"
       gradientUnits="userSpaceOnUse"
       gradientTransform="translate(768.23658,-37.356109)"
       x1="249.73787"
       y1="416.90427"
       x2="271.65436"
       y2="416.90427" /><linearGradient
       inkscape:collect="always"
       xlink:href="#linearGradient10800"
       id="linearGradient8148"
       gradientUnits="userSpaceOnUse"
       gradientTransform="translate(771.23325,-38.279609)"
       x1="231.26901"
       y1="372.42209"
       x2="292.16833"
       y2="372.42209" /><linearGradient
       inkscape:collect="always"
       xlink:href="#linearGradient10792"
       id="linearGradient8150"
       gradientUnits="userSpaceOnUse"
       gradientTransform="translate(771.23325,-38.279609)"
       x1="231.32579"
       y1="372.42194"
       x2="292.11176"
       y2="372.42194" /><linearGradient
       inkscape:collect="always"
       xlink:href="#linearGradient10540"
       id="linearGradient8152"
       gradientUnits="userSpaceOnUse"
       gradientTransform="matrix(0.36870952,0,0,0.36870952,976.76745,241.337)"
       x1="98.2612"
       y1="372.34653"
       x2="200.95523"
       y2="372.34653" /><linearGradient
       inkscape:collect="always"
       xlink:href="#linearGradient10784"
       id="linearGradient8154"
       gradientUnits="userSpaceOnUse"
       x1="82.412888"
       y1="83.063934"
       x2="134.91164"
       y2="83.063934" /><linearGradient
       inkscape:collect="always"
       xlink:href="#linearGradient10540"
       id="linearGradient8156"
       gradientUnits="userSpaceOnUse"
       gradientTransform="translate(882.38788,-31.077844)"
       x1="98.2612"
       y1="372.34653"
       x2="200.95523"
       y2="372.34653" /><linearGradient
       inkscape:collect="always"
       xlink:href="#linearGradient10776"
       id="linearGradient8158"
       gradientUnits="userSpaceOnUse"
       gradientTransform="translate(771.23325,-38.279609)"
       x1="217.20383"
       y1="379.54813"
       x2="304.32144"
       y2="379.54813" /></defs><g
     inkscape:label="Layer 1"
     inkscape:groupmode="layer"
     id="layer1"
     transform="translate(-988.4371,-290.97112)"><g
       id="g4834"
       inkscape:export-filename="tour5.svg"
       inkscape:export-xdpi="96"
       inkscape:export-ydpi="96"><path
         id="path8134"
         style="opacity:1;fill:url(#linearGradient8156);fill-opacity:1;stroke:url(#linearGradient8158);stroke-width:3.29999;stroke-linecap:square;stroke-miterlimit:8.4;stroke-dasharray:none;stroke-dashoffset:4.8756;stroke-opacity:1;paint-order:fill markers stroke"
         d="m 1031.9961,292.8764 -41.90903,24.19646 v 48.39188 l 41.90903,24.19594 41.9086,-24.19594 v -48.39188 z" /><path
         sodipodi:type="star"
         style="fill:none;fill-opacity:1;stroke:url(#linearGradient8154);stroke-width:8.9507;stroke-linecap:square;stroke-miterlimit:8.4;stroke-dasharray:none;stroke-dashoffset:4.8756;stroke-opacity:1;paint-order:stroke fill markers"
         id="path8136"
         inkscape:flatsided="true"
         sodipodi:sides="6"
         sodipodi:cx="108.66226"
         sodipodi:cy="83.063934"
         sodipodi:r1="25.142479"
         sodipodi:r2="21.774027"
         sodipodi:arg1="0.52359878"
         sodipodi:arg2="1.0471976"
         inkscape:rounded="0"
         inkscape:randomized="0"
         d="m 130.43629,95.635174 -21.77403,12.571236 -21.774024,-12.571236 10e-7,-25.142479 21.774023,-12.57124 21.77403,12.57124 z"
         inkscape:transform-center-x="6.3625523e-06"
         inkscape:transform-center-y="2.1660592e-06"
         transform="matrix(0.70966485,0,0,0.70966485,954.81556,319.67706)" /><path
         id="path8138"
         style="opacity:1;fill:url(#linearGradient8152);fill-opacity:1;stroke:none;stroke-width:1.21674;stroke-linecap:square;stroke-miterlimit:8.4;stroke-dasharray:none;stroke-dashoffset:4.8756;stroke-opacity:1;paint-order:fill markers stroke"
         d="m 1031.9294,360.78202 -15.4522,8.92146 v 17.84255 l 15.4522,8.92127 15.4521,-8.92127 v -17.84255 z" /><path
         style="fill:url(#linearGradient8148);fill-opacity:1;stroke:url(#linearGradient8150);stroke-width:0.1126"
         d="m 1017.77,311.06664 c 0.6016,-0.0895 0.9918,0.0672 1.6123,0.64759 0.3014,0.28195 0.5709,0.51338 0.5988,0.51432 0.044,0.004 0.4867,-0.13223 1.8724,-0.5646 0.2665,-0.0837 0.3185,-0.15821 0.3906,-0.56355 0.1462,-0.82269 0.3598,-1.18938 0.9555,-1.6409 0.3191,-0.24144 2.5885,-0.0373 3.0617,0.27566 0.4988,0.32993 0.727,0.87368 0.7165,1.70755 -0.01,0.60819 0.01,0.64903 0.3295,0.81827 0.1855,0.0978 0.6205,0.33748 0.9664,0.5322 0.6288,0.35404 0.6288,0.35404 1.3448,-0.0649 1.2102,-0.70816 1.8819,-0.48786 2.9692,0.9745 0.5039,0.67758 0.5913,0.86151 0.6098,1.28298 0.022,0.49523 -0.1288,0.79393 -0.8006,1.59051 -0.3092,0.36641 -0.3146,0.41268 -0.1115,0.94003 0.1176,0.30509 0.2673,0.7904 0.3328,1.07853 0.1192,0.52383 0.1192,0.52383 0.8957,0.73145 0.9326,0.24933 1.4212,0.71043 1.4734,1.39061 0.059,0.76965 -0.205,2.36455 -0.4398,2.65599 -0.2908,0.3611 -0.9395,0.60819 -1.644,0.62609 -0.5505,0.0135 -0.5505,0.0135 -0.8925,0.72535 -0.1885,0.39076 -0.4548,0.88002 -0.5918,1.08712 -0.2646,0.40009 -0.255,0.45873 0.1927,1.17238 0.3469,0.55287 0.3691,1.1831 0.059,1.68107 -0.3431,0.55133 -1.8545,1.67101 -2.3259,1.72292 -0.4979,0.0549 -0.9742,-0.15763 -1.4986,-0.66883 -0.4245,-0.4138 -0.4361,-0.41667 -0.9541,-0.23549 -0.2883,0.10085 -0.8382,0.25791 -1.2219,0.34897 -0.3837,0.0908 -0.6901,0.21812 -0.6809,0.28266 0.01,0.0645 -0.064,0.3892 -0.164,0.72158 -0.3272,1.09477 -0.9918,1.3903 -2.646,1.1765 -1.4627,-0.18901 -1.9341,-0.64809 -1.9572,-1.90599 -0.012,-0.62394 -0.056,-0.67469 -1.0587,-1.20506 -0.355,-0.18766 -0.723,-0.38847 -0.8179,-0.44608 -0.1031,-0.0627 -0.3221,-0.0154 -0.5462,0.1151 -0.2054,0.12145 -0.4999,0.29148 -0.6544,0.37771 -0.1543,0.0866 -0.5193,0.13434 -0.81,0.10932 -0.6324,-0.057 -1.1508,-0.47883 -1.8633,-1.51606 -0.381,-0.5547 -0.4653,-0.76886 -0.4678,-1.18922 0,-0.52595 0.3218,-1.11422 0.8666,-1.56876 0.1927,-0.16091 0.2324,-0.27772 0.1559,-0.45997 -0.056,-0.13434 -0.2178,-0.66135 -0.3585,-1.17103 -0.2559,-0.92674 -0.2559,-0.92674 -0.5932,-0.97152 -0.9867,-0.13088 -1.673,-0.63533 -1.8303,-1.34501 -0.1205,-0.54372 0.1552,-2.45533 0.3994,-2.77057 0.3148,-0.40624 0.7565,-0.60052 1.4349,-0.63077 0.3275,-0.0154 0.6607,-0.0362 0.7406,-0.0479 0.08,-0.0115 0.3593,-0.42815 0.6211,-0.92529 0.2618,-0.49709 0.5233,-0.94451 0.5811,-0.99419 0.1068,-0.0918 0.038,-0.26128 -0.3665,-0.90284 -0.3301,-0.52364 -0.4097,-0.96431 -0.2643,-1.46437 0.1142,-0.39231 0.2334,-0.53006 1.0457,-1.20731 0.7563,-0.63046 0.99,-0.77535 1.3338,-0.82655 z m 2.2708,7.85299 c -0.5663,1.08542 -0.6177,2.31143 -0.1445,3.45074 0.5953,1.43367 1.7951,2.30824 3.3589,2.44867 1.7432,0.15648 3.4111,-0.82313 4.0846,-2.40086 0.3,-0.70223 0.3891,-1.81348 0.2084,-2.59819 -0.1471,-0.6381 -0.2342,-0.7955 -0.8502,-1.53373 -0.6301,-0.75518 -0.7492,-0.85059 -1.4526,-1.16329 -1.9413,-0.86309 -4.2287,-0.0735 -5.2045,1.79666 z m -11.8235,14.80002 c 0.5386,-0.23281 1.1172,-0.0641 1.9094,0.55742 0.3864,0.30314 0.7741,0.60103 0.8615,0.66197 0.1001,0.0699 0.3586,0.0115 0.6979,-0.1586 0.2964,-0.1484 0.8616,-0.37669 1.256,-0.50668 0.7172,-0.23653 0.7172,-0.23653 0.8517,-1.23661 0.2437,-1.81127 0.6099,-2.08809 2.7598,-2.0857 2.5364,0.002 2.8043,0.20023 3.0342,2.23737 0.1004,0.89081 0.1004,0.89081 0.6408,1.06529 0.2971,0.0958 0.8567,0.32878 1.2435,0.51738 0.7033,0.34293 0.7033,0.34293 1.3968,-0.23574 0.8691,-0.72514 1.4549,-0.93291 2.0606,-0.73091 0.3625,0.12087 0.6409,0.35138 1.5129,1.25259 0.5878,0.60746 1.134,1.23986 1.2138,1.40535 0.2555,0.5295 0.1176,1.09223 -0.4533,1.85138 -0.2866,0.38104 -0.5711,0.76402 -0.6323,0.85109 -0.07,0.0999 -0.012,0.35777 0.1584,0.69746 0.1484,0.2965 0.3974,0.88602 0.5533,1.31006 0.2835,0.771 0.2835,0.771 0.9221,0.84385 1.166,0.133 1.591,0.28286 1.9198,0.67692 0.3881,0.46517 0.4205,0.63404 0.4232,2.2094 0,1.63865 -0.061,1.93251 -0.5219,2.39273 -0.3748,0.37445 -0.5063,0.4142 -2.0943,0.61651 -0.2564,0.0329 -0.3144,0.11894 -0.5902,0.87443 -0.1682,0.46095 -0.43,1.09426 -0.5819,1.40739 -0.276,0.56928 -0.276,0.56928 0.2865,1.36671 0.7521,1.06604 0.8229,1.59645 0.3089,2.31335 -0.074,0.10393 -0.5762,0.62904 -1.1148,1.1667 -0.9154,0.91394 -1.0144,0.98775 -1.5177,1.13183 -0.6031,0.17265 -1.1571,-0.0256 -1.881,-0.67349 -0.5306,-0.47477 -0.6893,-0.4899 -1.4298,-0.13608 -0.346,0.16533 -0.9445,0.41045 -1.3301,0.54443 -0.7009,0.2438 -0.7009,0.2438 -0.8016,1.09445 -0.1478,1.24727 -0.4468,1.67442 -1.2999,1.85679 -0.6067,0.13011 -3.0658,0.0739 -3.4367,-0.0779 -0.5166,-0.21161 -0.8895,-0.89632 -1.0011,-1.83788 -0.055,-0.46774 -0.1274,-0.88234 -0.1599,-0.92132 -0.033,-0.0389 -0.3318,-0.16244 -0.6651,-0.27427 -0.3333,-0.11202 -0.8881,-0.3492 -1.2329,-0.52737 -0.6268,-0.32395 -0.6268,-0.32395 -1.4592,0.28447 -1.3584,0.99287 -1.7735,0.90202 -3.4247,-0.74946 -0.979,-0.97924 -1.0615,-1.08656 -1.1633,-1.51289 -0.1544,-0.64724 -0.01,-1.08577 0.6277,-1.89605 0.5545,-0.70564 0.5545,-0.70564 0.2026,-1.50228 -0.1936,-0.43816 -0.4147,-0.99974 -0.4913,-1.24795 -0.077,-0.24821 -0.1844,-0.50522 -0.2394,-0.57116 -0.055,-0.0658 -0.511,-0.17457 -1.0132,-0.24117 -1.2842,-0.17053 -1.7161,-0.45473 -1.8911,-1.24419 -0.1482,-0.66867 -0.054,-3.22988 0.1321,-3.58453 0.2743,-0.52345 0.8278,-0.7936 1.8907,-0.92302 0.9677,-0.1176 0.9677,-0.1176 1.1212,-0.56169 0.085,-0.24413 0.348,-0.86323 0.5857,-1.37579 0.4323,-0.93194 0.4323,-0.93194 -0.1661,-1.6493 -1.0011,-1.20051 -1.0095,-1.85268 -0.037,-2.87208 1.0818,-1.13362 1.716,-1.70453 2.0582,-1.85256 z m 3.8667,9.23706 c -1.4516,3.11677 0.6206,6.73204 4.0378,7.04455 1.246,0.11395 2.3206,-0.17611 3.2915,-0.88856 1.356,-0.99496 1.933,-1.99364 2.077,-3.5945 0.1324,-1.47241 -0.081,-2.22474 -0.9614,-3.38504 -0.5754,-0.75853 -0.7824,-0.95989 -1.3322,-1.29597 -1.1158,-0.68206 -2.4917,-0.91187 -3.7395,-0.62455 -0.9139,0.21195 -1.3197,0.43795 -2.2093,1.23902 -0.6905,0.62176 -0.8464,0.82322 -1.1639,1.50507 z m 25.2017,-18.48393 c 0.8012,-0.22794 1.2494,0.004 2.5843,1.3356 0.34,0.33923 0.6901,0.61317 0.778,0.60877 0.088,-0.004 0.4118,-0.10124 0.7201,-0.21503 0.3081,-0.11395 0.9814,-0.32185 1.4963,-0.4614 0.642,-0.17245 0.9505,-0.30982 0.982,-0.4308 0.025,-0.0972 0.1692,-0.71892 0.3201,-1.38151 0.4505,-1.97885 0.7163,-2.12694 3.4265,-1.90914 2.1803,0.17515 2.671,0.29692 3.0555,0.75778 0.3416,0.40931 0.4185,0.78299 0.4635,2.25066 0.037,1.19531 0.037,1.19531 0.6352,1.44976 0.3292,0.13992 0.9807,0.46353 1.4478,0.71903 0.8493,0.46457 0.8493,0.46457 1.7543,-0.12741 1.3654,-0.89301 1.5618,-0.98359 2.0212,-0.9312 0.6852,0.0781 0.9342,0.28676 2.3094,1.93499 1.9873,2.38178 1.9974,2.54188 0.2766,4.3585 -0.7338,0.7747 -0.7338,0.7747 -0.3901,1.66111 0.189,0.48753 0.4413,1.24221 0.5606,1.67712 0.2169,0.79073 0.2169,0.79073 1.2617,1.00037 1.1997,0.24074 1.5584,0.36735 1.837,0.64844 0.5904,0.59554 0.5973,0.64403 0.4125,2.88909 -0.099,1.19823 -0.2564,2.34581 -0.3508,2.55011 -0.3457,0.74908 -0.7776,0.91725 -2.458,0.95736 -1.0394,0.0248 -1.0394,0.0248 -1.4614,0.99498 -0.2321,0.53363 -0.6229,1.28738 -0.8683,1.67506 -0.499,0.78838 -0.5253,0.64499 0.3631,1.97926 0.5043,0.75743 0.6277,1.19471 0.4979,1.76495 -0.1086,0.47644 -0.1086,0.47644 -1.8815,1.9558 -1.7041,1.42174 -1.7913,1.48074 -2.2319,1.5267 -0.6247,0.0643 -0.9791,-0.12222 -1.9566,-1.03088 -0.4596,-0.42715 -0.8438,-0.78093 -0.8539,-0.78613 -0.01,-0.006 -0.3524,0.12395 -0.7608,0.28696 -0.4083,0.16321 -1.1935,0.40935 -1.7447,0.54756 -1.0021,0.2516 -1.0021,0.2516 -1.1646,1.02612 -0.3892,1.85884 -0.5893,2.17967 -1.5013,2.40719 -0.6409,0.15994 -4.0999,-0.17034 -4.6204,-0.44105 -0.7836,-0.40758 -0.8816,-0.66736 -0.9329,-2.47105 -0.028,-0.99456 -0.028,-0.99456 -0.9344,-1.42003 -0.4984,-0.23403 -1.1521,-0.58329 -1.4526,-0.77615 -0.3005,-0.19287 -0.6018,-0.35907 -0.6696,-0.36935 -0.068,-0.01 -0.5827,0.27248 -1.1442,0.62823 -1.1578,0.7336 -1.3252,0.78827 -1.9657,0.64239 -0.459,-0.10451 -0.463,-0.10836 -1.9835,-1.93074 -1.5236,-1.82607 -1.5236,-1.82607 -1.5103,-2.35371 0.015,-0.59884 0.2021,-0.90545 1.2012,-1.96868 0.3838,-0.40854 0.6957,-0.75287 0.693,-0.76521 0,-0.0135 -0.1427,-0.3695 -0.311,-0.79365 -0.1682,-0.42417 -0.3933,-1.14225 -0.4998,-1.59571 -0.1065,-0.4535 -0.2226,-0.85912 -0.258,-0.9014 -0.035,-0.0423 -0.5354,-0.1763 -1.1115,-0.29768 -2.371,-0.49983 -2.4716,-0.68377 -2.1499,-3.929 0.2804,-2.82944 0.4449,-3.02913 2.5449,-3.08957 0.6112,-0.0173 1.182,-0.0346 1.2684,-0.0379 0.095,-0.004 0.3328,-0.37863 0.6015,-0.94878 0.2444,-0.5186 0.6185,-1.20863 0.8315,-1.53339 0.2129,-0.32481 0.3827,-0.64589 0.3772,-0.7136 -0.01,-0.0676 -0.2161,-0.42171 -0.4681,-0.78665 -1.4977,-2.16945 -1.4447,-2.40963 0.9756,-4.42021 1.1261,-0.9341 1.6862,-1.3447 1.9389,-1.41665 z m 4.0001,11.18639 c -1.2519,1.7711 -1.4774,4.06072 -0.5993,6.08393 0.3914,0.90177 1.3914,2.06225 2.2509,2.61218 1.7286,1.10604 4.1734,1.23011 6.0217,0.30557 3.1791,-1.59016 4.3081,-5.56628 2.4557,-8.64882 -1.5117,-2.51547 -4.9166,-3.56796 -7.6464,-2.36352 -0.7971,0.35161 -1.9967,1.32327 -2.4827,2.01058 z"
         id="path8140" /><text
         xml:space="preserve"
         style="font-style:normal;font-variant:normal;font-weight:normal;font-stretch:normal;font-size:25.6376px;font-family:'Bookman Old Style';-inkscape-font-specification:'Bookman Old Style, Normal';font-variant-ligatures:normal;font-variant-caps:normal;font-variant-numeric:normal;font-variant-east-asian:normal;text-align:end;letter-spacing:-1.09694px;text-anchor:end;fill:url(#linearGradient8146);fill-opacity:1;stroke:none;stroke-width:4.36039;stroke-linecap:square;stroke-miterlimit:8.4;stroke-dasharray:none;stroke-dashoffset:4.8756;paint-order:stroke fill markers"
         x="1040.905"
         y="388.27969"
         id="text8144"><tspan
           sodipodi:role="line"
           id="tspan8142"
           style="font-style:normal;font-variant:normal;font-weight:normal;font-stretch:normal;font-size:25.6376px;font-family:'Bookman Old Style';-inkscape-font-specification:'Bookman Old Style, Normal';font-variant-ligatures:normal;font-variant-caps:normal;font-variant-numeric:normal;font-variant-east-asian:normal;fill:url(#linearGradient8146);fill-opacity:1;stroke:none;stroke-width:4.36039"
           x="1039.8081"
           y="388.27969">V</tspan></text></g></g></svg>
