<?xml version="1.0" encoding="UTF-8" standalone="no"?>
<!-- Created with Inkscape (http://www.inkscape.org/) -->

<svg
   width="87.117615mm"
   height="109.16357mm"
   viewBox="0 0 87.117615 109.16357"
   version="1.1"
   id="svg5"
   xml:space="preserve"
   inkscape:version="1.2.2 (732a01da63, 2022-12-09)"
   sodipodi:docname="Achivements.svg"
   xmlns:inkscape="http://www.inkscape.org/namespaces/inkscape"
   xmlns:sodipodi="http://sodipodi.sourceforge.net/DTD/sodipodi-0.dtd"
   xmlnsXlink="http://www.w3.org/1999/xlink"
   xmlns="http://www.w3.org/2000/svg"
   xmlns:svg="http://www.w3.org/2000/svg"><sodipodi:namedview
     id="namedview7"
     pagecolor="#ffffff"
     bordercolor="#000000"
     borderopacity="0.25"
     inkscape:showpageshadow="2"
     inkscape:pageopacity="0.0"
     inkscape:pagecheckerboard="0"
     inkscape:deskcolor="#d1d1d1"
     inkscape:document-units="mm"
     showgrid="false"
     inkscape:zoom="0.7162458"
     inkscape:cx="3312.4103"
     inkscape:cy="1406.64"
     inkscape:window-width="1920"
     inkscape:window-height="991"
     inkscape:window-x="-9"
     inkscape:window-y="-9"
     inkscape:window-maximized="1"
     inkscape:current-layer="layer1" /><defs
     id="defs2"><linearGradient
       inkscape:collect="always"
       id="linearGradient11534"><stop
         style="stop-color:#870000;stop-opacity:1;"
         offset="0"
         id="stop11530" /><stop
         style="stop-color:#ca0000;stop-opacity:1;"
         offset="1"
         id="stop11532" /></linearGradient><linearGradient
       inkscape:collect="always"
       id="linearGradient10800"><stop
         style="stop-color:#870000;stop-opacity:1;"
         offset="0"
         id="stop10796" /><stop
         style="stop-color:#ca0000;stop-opacity:1;"
         offset="1"
         id="stop10798" /></linearGradient><linearGradient
       inkscape:collect="always"
       id="linearGradient10792"><stop
         style="stop-color:#870000;stop-opacity:1;"
         offset="0"
         id="stop10788" /><stop
         style="stop-color:#870000;stop-opacity:0;"
         offset="1"
         id="stop10790" /></linearGradient><linearGradient
       inkscape:collect="always"
       id="linearGradient10784"><stop
         style="stop-color:#870000;stop-opacity:1;"
         offset="0"
         id="stop10780" /><stop
         style="stop-color:#ca0000;stop-opacity:1;"
         offset="1"
         id="stop10782" /></linearGradient><linearGradient
       inkscape:collect="always"
       id="linearGradient10776"><stop
         style="stop-color:#870000;stop-opacity:1;"
         offset="0"
         id="stop10772" /><stop
         style="stop-color:#ca0000;stop-opacity:1;"
         offset="1"
         id="stop10774" /></linearGradient><linearGradient
       inkscape:collect="always"
       id="linearGradient10540"><stop
         style="stop-color:#f5be39;stop-opacity:1;"
         offset="0"
         id="stop10530" /><stop
         style="stop-color:#ffd699;stop-opacity:1;"
         offset="0.36643833"
         id="stop10532" /><stop
         style="stop-color:#e49a22;stop-opacity:1;"
         offset="0.66609591"
         id="stop10534" /><stop
         style="stop-color:#e8b342;stop-opacity:1;"
         offset="0.87842464"
         id="stop10536" /><stop
         style="stop-color:#ffd587;stop-opacity:1;"
         offset="1"
         id="stop10538" /></linearGradient><linearGradient
       inkscape:collect="always"
       xlinkHref="#linearGradient11534"
       id="linearGradient8172"
       gradientUnits="userSpaceOnUse"
       gradientTransform="translate(568.83363,-38.279606)"
       x1="249.73787"
       y1="416.90427"
       x2="271.65436"
       y2="416.90427" /><linearGradient
       inkscape:collect="always"
       xlinkHref="#linearGradient10800"
       id="linearGradient8174"
       gradientUnits="userSpaceOnUse"
       gradientTransform="translate(576.44949,-38.279609)"
       x1="231.26901"
       y1="372.42209"
       x2="292.16833"
       y2="372.42209" /><linearGradient
       inkscape:collect="always"
       xlinkHref="#linearGradient10792"
       id="linearGradient8176"
       gradientUnits="userSpaceOnUse"
       gradientTransform="translate(576.44949,-38.279609)"
       x1="231.32579"
       y1="372.42194"
       x2="292.11176"
       y2="372.42194" /><linearGradient
       inkscape:collect="always"
       xlinkHref="#linearGradient10540"
       id="linearGradient8178"
       gradientUnits="userSpaceOnUse"
       gradientTransform="matrix(0.36870952,0,0,0.36870952,781.98369,241.337)"
       x1="98.2612"
       y1="372.34653"
       x2="200.95523"
       y2="372.34653" /><linearGradient
       inkscape:collect="always"
       xlinkHref="#linearGradient10784"
       id="linearGradient8180"
       gradientUnits="userSpaceOnUse"
       x1="82.412888"
       y1="83.063934"
       x2="134.91164"
       y2="83.063934" /><linearGradient
       inkscape:collect="always"
       xlinkHref="#linearGradient10540"
       id="linearGradient8182"
       gradientUnits="userSpaceOnUse"
       gradientTransform="translate(687.60412,-31.077844)"
       x1="98.2612"
       y1="372.34653"
       x2="200.95523"
       y2="372.34653" /><linearGradient
       inkscape:collect="always"
       xlinkHref="#linearGradient10776"
       id="linearGradient8184"
       gradientUnits="userSpaceOnUse"
       gradientTransform="translate(576.44949,-38.279609)"
       x1="217.20383"
       y1="379.54813"
       x2="304.32144"
       y2="379.54813" /></defs><g
     inkscape:label="Layer 1"
     inkscape:groupmode="layer"
     id="layer1"
     transform="translate(-793.65328,-290.97112)"><g
       id="g7315"><path
         id="path8160"
         style="fill:url(#linearGradient8182);fill-opacity:1;stroke:url(#linearGradient8184);stroke-width:3.29999;stroke-linecap:square;stroke-miterlimit:8.4;stroke-dasharray:none;stroke-dashoffset:4.8756;stroke-opacity:1;paint-order:fill markers stroke"
         d="m 837.21238,292.8764 -41.90907,24.19646 v 48.39188 l 41.90907,24.19594 41.90856,-24.19594 v -48.39188 z"
         inkscape:export-filename="tour1.svg"
         inkscape:export-xdpi="96"
         inkscape:export-ydpi="96" /><path
         sodipodi:type="star"
         style="fill:none;fill-opacity:1;stroke:url(#linearGradient8180);stroke-width:8.9507;stroke-linecap:square;stroke-miterlimit:8.4;stroke-dasharray:none;stroke-dashoffset:4.8756;stroke-opacity:1;paint-order:stroke fill markers"
         id="path8162"
         inkscape:flatsided="true"
         sodipodi:sides="6"
         sodipodi:cx="108.66226"
         sodipodi:cy="83.063934"
         sodipodi:r1="25.142479"
         sodipodi:r2="21.774027"
         sodipodi:arg1="0.52359878"
         sodipodi:arg2="1.0471976"
         inkscape:rounded="0"
         inkscape:randomized="0"
         d="m 130.43629,95.635174 -21.77403,12.571236 -21.774024,-12.571236 10e-7,-25.142479 21.774023,-12.57124 21.77403,12.57124 z"
         inkscape:transform-center-x="6.3625523e-06"
         inkscape:transform-center-y="2.1660592e-06"
         transform="matrix(0.70966485,0,0,0.70966485,760.0318,319.67706)" /><path
         id="path8164"
         style="fill:url(#linearGradient8178);fill-opacity:1;stroke:none;stroke-width:1.21674;stroke-linecap:square;stroke-miterlimit:8.4;stroke-dasharray:none;stroke-dashoffset:4.8756;stroke-opacity:1;paint-order:fill markers stroke"
         d="m 837.14568,360.78202 -15.45228,8.92146 v 17.84255 l 15.45228,8.92127 15.45209,-8.92127 v -17.84255 z" /><path
         style="fill:url(#linearGradient8174);fill-opacity:1;stroke:url(#linearGradient8176);stroke-width:0.1126"
         d="m 822.98623,311.06664 c 0.60158,-0.0895 0.99186,0.0672 1.61233,0.64759 0.30139,0.28195 0.57087,0.51338 0.59882,0.51432 0.0443,0.004 0.48664,-0.13223 1.87234,-0.5646 0.26648,-0.0837 0.3185,-0.15821 0.39058,-0.56355 0.14628,-0.82269 0.35981,-1.18938 0.95551,-1.6409 0.31914,-0.24144 2.58853,-0.0373 3.06176,0.27566 0.49881,0.32993 0.72695,0.87368 0.71646,1.70755 -0.008,0.60819 0.01,0.64903 0.32949,0.81827 0.18554,0.0978 0.62057,0.33748 0.96642,0.5322 0.62882,0.35404 0.62882,0.35404 1.34482,-0.0649 1.21016,-0.70816 1.88185,-0.48786 2.96923,0.9745 0.50388,0.67758 0.5913,0.86151 0.60974,1.28298 0.0217,0.49523 -0.12877,0.79393 -0.80063,1.59051 -0.30913,0.36641 -0.31452,0.41268 -0.11144,0.94003 0.1176,0.30509 0.26729,0.7904 0.3328,1.07853 0.11914,0.52383 0.11914,0.52383 0.89569,0.73145 0.93264,0.24933 1.42121,0.71043 1.47339,1.39061 0.0591,0.76965 -0.20502,2.36455 -0.43976,2.65599 -0.29085,0.3611 -0.93951,0.60819 -1.64406,0.62609 -0.55052,0.0135 -0.55052,0.0135 -0.89252,0.72535 -0.18843,0.39076 -0.45474,0.88002 -0.59176,1.08712 -0.26463,0.40009 -0.255,0.45873 0.19274,1.17238 0.34689,0.55287 0.36907,1.1831 0.0593,1.68107 -0.34317,0.55133 -1.85456,1.67101 -2.32594,1.72292 -0.49794,0.0549 -0.97419,-0.15763 -1.4986,-0.66883 -0.42452,-0.4138 -0.43612,-0.41667 -0.95406,-0.23549 -0.28838,0.10085 -0.83824,0.25791 -1.22191,0.34897 -0.38369,0.0908 -0.69012,0.21812 -0.6809,0.28266 0.01,0.0645 -0.0645,0.3892 -0.16399,0.72158 -0.3272,1.09477 -0.99183,1.3903 -2.64604,1.1765 -1.46267,-0.18901 -1.93405,-0.64809 -1.95719,-1.90599 -0.0115,-0.62394 -0.056,-0.67469 -1.05873,-1.20506 -0.35497,-0.18766 -0.723,-0.38847 -0.81783,-0.44608 -0.10316,-0.0627 -0.32219,-0.0154 -0.54623,0.1151 -0.20544,0.12145 -0.49993,0.29148 -0.65438,0.37771 -0.15437,0.0866 -0.51929,0.13434 -0.81006,0.10932 -0.63242,-0.057 -1.15077,-0.47883 -1.86328,-1.51606 -0.38101,-0.5547 -0.46528,-0.76886 -0.4678,-1.18922 -0.004,-0.52595 0.32181,-1.11422 0.86656,-1.56876 0.19275,-0.16091 0.23245,-0.27772 0.15591,-0.45997 -0.0564,-0.13434 -0.21778,-0.66135 -0.35848,-1.17103 -0.25587,-0.92674 -0.25587,-0.92674 -0.59322,-0.97152 -0.98663,-0.13088 -1.67294,-0.63533 -1.83023,-1.34501 -0.12049,-0.54372 0.15513,-2.45533 0.39936,-2.77057 0.31479,-0.40624 0.75653,-0.60052 1.43495,-0.63077 0.32747,-0.0154 0.6607,-0.0362 0.74052,-0.0479 0.0799,-0.0115 0.35932,-0.42815 0.62112,-0.92529 0.2618,-0.49709 0.52331,-0.94451 0.58111,-0.99419 0.10682,-0.0918 0.0379,-0.26128 -0.36654,-0.90284 -0.33009,-0.52364 -0.40962,-0.96431 -0.26423,-1.46437 0.11414,-0.39231 0.23338,-0.53006 1.04568,-1.20731 0.7563,-0.63046 0.98996,-0.77535 1.33375,-0.82655 z m 2.27083,7.85299 c -0.56634,1.08542 -0.61772,2.31143 -0.14454,3.45074 0.59537,1.43367 1.79512,2.30824 3.35897,2.44867 1.7432,0.15648 3.41104,-0.82313 4.08458,-2.40086 0.29994,-0.70223 0.38908,-1.81348 0.20836,-2.59819 -0.14704,-0.6381 -0.23419,-0.7955 -0.85016,-1.53373 -0.6301,-0.75518 -0.74924,-0.85059 -1.45258,-1.16329 -1.94139,-0.86309 -4.22874,-0.0735 -5.20459,1.79666 z m -11.8235,14.80002 c 0.53857,-0.23281 1.1172,-0.0641 1.90941,0.55742 0.38642,0.30314 0.77408,0.60103 0.86146,0.66197 0.10009,0.0699 0.35864,0.0115 0.69791,-0.1586 0.29642,-0.1484 0.86156,-0.37669 1.25603,-0.50668 0.71722,-0.23653 0.71722,-0.23653 0.85172,-1.23661 0.24361,-1.81127 0.60983,-2.08809 2.75972,-2.0857 2.53648,0.002 2.80433,0.20023 3.03419,2.23737 0.10047,0.89081 0.10047,0.89081 0.64084,1.06529 0.29714,0.0958 0.85675,0.32878 1.24354,0.51738 0.70323,0.34293 0.70323,0.34293 1.39674,-0.23574 0.86913,-0.72514 1.45488,-0.93291 2.06059,-0.73091 0.3625,0.12087 0.64089,0.35138 1.51294,1.25259 0.58779,0.60746 1.13402,1.23986 1.21384,1.40535 0.25541,0.5295 0.1176,1.09223 -0.45337,1.85138 -0.28655,0.38104 -0.57108,0.76402 -0.63227,0.85109 -0.0701,0.0999 -0.0115,0.35777 0.15841,0.69746 0.14839,0.2965 0.39743,0.88602 0.55333,1.31006 0.28348,0.771 0.28348,0.771 0.92202,0.84385 1.16605,0.133 1.59106,0.28286 1.91986,0.67692 0.38812,0.46517 0.42046,0.63404 0.42319,2.2094 0.004,1.63865 -0.0612,1.93251 -0.52187,2.39273 -0.37483,0.37445 -0.50635,0.4142 -2.09432,0.61651 -0.25641,0.0329 -0.31444,0.11894 -0.59021,0.87443 -0.16822,0.46095 -0.43006,1.09426 -0.58188,1.40739 -0.27604,0.56928 -0.27604,0.56928 0.28649,1.36671 0.75205,1.06604 0.82286,1.59645 0.30886,2.31335 -0.0745,0.10393 -0.5762,0.62904 -1.11483,1.1667 -0.91532,0.91394 -1.01438,0.98775 -1.51768,1.13183 -0.60307,0.17265 -1.15704,-0.0256 -1.881,-0.67349 -0.53061,-0.47477 -0.68932,-0.4899 -1.42982,-0.13608 -0.34598,0.16533 -0.94446,0.41045 -1.33001,0.54443 -0.70093,0.2438 -0.70093,0.2438 -0.80165,1.09445 -0.14782,1.24727 -0.44682,1.67442 -1.29989,1.85679 -0.60669,0.13011 -3.06584,0.0739 -3.43666,-0.0779 -0.51663,-0.21161 -0.88958,-0.89632 -1.00112,-1.83788 -0.0554,-0.46774 -0.12742,-0.88234 -0.15995,-0.92132 -0.0325,-0.0389 -0.33182,-0.16244 -0.6651,-0.27427 -0.3333,-0.11202 -0.88808,-0.3492 -1.23286,-0.52737 -0.62686,-0.32395 -0.62686,-0.32395 -1.4592,0.28447 -1.35843,0.99287 -1.77349,0.90202 -3.42467,-0.74946 -0.97902,-0.97924 -1.06157,-1.08656 -1.16333,-1.51289 -0.15437,-0.64724 -0.01,-1.08577 0.62765,-1.89605 0.55457,-0.70564 0.55457,-0.70564 0.20263,-1.50228 -0.19355,-0.43816 -0.41466,-0.99974 -0.49132,-1.24795 -0.0766,-0.24821 -0.18439,-0.50522 -0.2394,-0.57116 -0.055,-0.0658 -0.51093,-0.17457 -1.01315,-0.24117 -1.28426,-0.17053 -1.71613,-0.45473 -1.89109,-1.24419 -0.1482,-0.66867 -0.0539,-3.22988 0.13204,-3.58453 0.27435,-0.52345 0.82778,-0.7936 1.89076,-0.92302 0.96771,-0.1176 0.96771,-0.1176 1.12117,-0.56169 0.0845,-0.24413 0.34798,-0.86323 0.58574,-1.37579 0.43226,-0.93194 0.43226,-0.93194 -0.1661,-1.6493 -1.0011,-1.20051 -1.00955,-1.85268 -0.0368,-2.87208 1.08175,-1.13362 1.71594,-1.70453 2.05814,-1.85256 z m 3.86669,9.23706 c -1.45164,3.11677 0.62061,6.73204 4.03784,7.04455 1.24595,0.11395 2.32057,-0.17611 3.29148,-0.88856 1.35596,-0.99496 1.93299,-1.99364 2.07696,-3.5945 0.13242,-1.47241 -0.0812,-2.22474 -0.9614,-3.38504 -0.57539,-0.75853 -0.78238,-0.95989 -1.33219,-1.29597 -1.1158,-0.68206 -2.49174,-0.91187 -3.73951,-0.62455 -0.91387,0.21195 -1.31968,0.43795 -2.2093,1.23902 -0.69048,0.62176 -0.84638,0.82322 -1.16388,1.50507 z m 25.20167,-18.48393 c 0.80122,-0.22794 1.24943,0.004 2.58431,1.3356 0.34,0.33923 0.69007,0.61317 0.77797,0.60877 0.088,-0.004 0.41187,-0.10124 0.72013,-0.21503 0.30811,-0.11395 0.98146,-0.32185 1.49636,-0.4614 0.64191,-0.17245 0.9505,-0.30982 0.98195,-0.4308 0.0252,-0.0972 0.16918,-0.71892 0.3201,-1.38151 0.45053,-1.97885 0.71632,-2.12694 3.42649,-1.90914 2.18032,0.17515 2.67102,0.29692 3.05552,0.75778 0.34155,0.40931 0.4185,0.78299 0.46351,2.25066 0.0366,1.19531 0.0366,1.19531 0.6352,1.44976 0.32918,0.13992 0.98068,0.46353 1.44779,0.71903 0.84926,0.46457 0.84926,0.46457 1.7543,-0.12741 1.36539,-0.89301 1.56181,-0.98359 2.0212,-0.9312 0.68524,0.0781 0.93418,0.28676 2.30939,1.93499 1.98727,2.38178 1.99743,2.54188 0.27664,4.3585 -0.73385,0.7747 -0.73385,0.7747 -0.39012,1.66111 0.18901,0.48753 0.4413,1.24221 0.56061,1.67712 0.21684,0.79073 0.21684,0.79073 1.26165,1.00037 1.19977,0.24074 1.55841,0.36735 1.83703,0.64844 0.59035,0.59554 0.59728,0.64403 0.4125,2.88909 -0.0985,1.19823 -0.25645,2.34581 -0.35076,2.55011 -0.3457,0.74908 -0.77768,0.91725 -2.45809,0.95736 -1.03935,0.0248 -1.03935,0.0248 -1.4614,0.99498 -0.2321,0.53363 -0.62282,1.28738 -0.86822,1.67506 -0.49906,0.78838 -0.52537,0.64499 0.36306,1.97926 0.50435,0.75743 0.62769,1.19471 0.49789,1.76495 -0.10856,0.47644 -0.10856,0.47644 -1.88153,1.9558 -1.70403,1.42174 -1.79129,1.48074 -2.23184,1.5267 -0.62467,0.0643 -0.9791,-0.12222 -1.95661,-1.03088 -0.45956,-0.42715 -0.84379,-0.78093 -0.85386,-0.78613 -0.01,-0.006 -0.35243,0.12395 -0.76084,0.28696 -0.40833,0.16321 -1.19355,0.40935 -1.74475,0.54756 -1.00209,0.2516 -1.00209,0.2516 -1.16451,1.02612 -0.38928,1.85884 -0.58937,2.17967 -1.5013,2.40719 -0.64095,0.15994 -4.09997,-0.17034 -4.62049,-0.44105 -0.78356,-0.40758 -0.8816,-0.66736 -0.93284,-2.47105 -0.0283,-0.99456 -0.0283,-0.99456 -0.93443,-1.42003 -0.4984,-0.23403 -1.15205,-0.58329 -1.45258,-0.77615 -0.30052,-0.19287 -0.60184,-0.35907 -0.66961,-0.36935 -0.0677,-0.01 -0.58269,0.27248 -1.14422,0.62823 -1.15778,0.7336 -1.32513,0.78827 -1.96569,0.64239 -0.45901,-0.10451 -0.46301,-0.10836 -1.98352,-1.93074 -1.5236,-1.82607 -1.5236,-1.82607 -1.5103,-2.35371 0.0154,-0.59884 0.20217,-0.90545 1.20123,-1.96868 0.38385,-0.40854 0.69571,-0.75287 0.69297,-0.76521 -0.002,-0.0135 -0.14262,-0.3695 -0.31097,-0.79365 -0.16822,-0.42417 -0.39326,-1.14225 -0.49983,-1.59571 -0.10644,-0.4535 -0.22261,-0.85912 -0.25793,-0.9014 -0.0352,-0.0423 -0.53546,-0.1763 -1.11151,-0.29768 -2.37098,-0.49983 -2.47162,-0.68377 -2.14996,-3.929 0.28047,-2.82944 0.44495,-3.02913 2.5449,-3.08957 0.61119,-0.0173 1.182,-0.0346 1.26846,-0.0379 0.0951,-0.004 0.3328,-0.37863 0.60147,-0.94878 0.24437,-0.5186 0.61853,-1.20863 0.83148,-1.53339 0.21291,-0.32481 0.38271,-0.64589 0.37723,-0.7136 -0.006,-0.0676 -0.21611,-0.42171 -0.46806,-0.78665 -1.49775,-2.16945 -1.44476,-2.40963 0.97551,-4.42021 1.12617,-0.9341 1.68626,-1.3447 1.93894,-1.41665 z m 4.00013,11.18639 c -1.25189,1.7711 -1.47743,4.06072 -0.59926,6.08393 0.39139,0.90177 1.39138,2.06225 2.25088,2.61218 1.72855,1.10604 4.17334,1.23011 6.02163,0.30557 3.17918,-1.59016 4.30815,-5.56628 2.45572,-8.64882 -1.51167,-2.51547 -4.91661,-3.56796 -7.64639,-2.36352 -0.79707,0.35161 -1.99664,1.32327 -2.48265,2.01058 z"
         id="path8166" /><text
         xml:space="preserve"
         style="font-style:normal;font-variant:normal;font-weight:normal;font-stretch:normal;font-size:25.6376px;font-family:'Bookman Old Style';-inkscape-font-specification:'Bookman Old Style, Normal';font-variant-ligatures:normal;font-variant-caps:normal;font-variant-numeric:normal;font-variant-east-asian:normal;text-align:end;letter-spacing:-1.09694px;text-anchor:end;fill:url(#linearGradient8172);fill-opacity:1;stroke:none;stroke-width:4.36039;stroke-linecap:square;stroke-miterlimit:8.4;stroke-dasharray:none;stroke-dashoffset:4.8756;paint-order:stroke fill markers"
         x="841.50195"
         y="387.3562"
         id="text8170"><tspan
           sodipodi:role="line"
           id="tspan8168"
           style="font-style:normal;font-variant:normal;font-weight:normal;font-stretch:normal;font-size:25.6376px;font-family:'Bookman Old Style';-inkscape-font-specification:'Bookman Old Style, Normal';font-variant-ligatures:normal;font-variant-caps:normal;font-variant-numeric:normal;font-variant-east-asian:normal;fill:url(#linearGradient8172);fill-opacity:1;stroke:none;stroke-width:4.36039"
           x="840.40503"
           y="387.3562">I</tspan></text></g></g></svg>
